PathFileType	4	(X/Y/Z)	Patient4_TMGait_0pt2_02_left_08.trc.trc
DataRate	CameraRate	NumFrames	NumMarkers	Units	OrigDataRate	OrigDataStartFrame	OrigNumFrames
42.682926829268	42.682926829268	4	33	mm	42.682926829268	89	       141
Frame#	Time	R.Midfoot.Superior			Sacral			L.Shoulder			Chest			R.Shoulder			Neck			R.ASIS			L.ASIS			R.Thigh.Superior			R.Thigh.Lateral			R.Thigh.Inferior			R.Patella			L.Thigh.Superior			L.Thigh.Lateral			L.Thigh.Inferior			L.Patella			L.Shank.Superior			L.Shank.Lateral			L.Shank.Inferior			R.Shank.Superior			R.Shank.Lateral			R.Shank.Inferior			R.Heel			R.Midfoot.Lateral			R.Toe			L.Heel			L.Midfoot.Lateral			L.Midfoot.Superior			L.Toe			L.Elbow			L.Wrist			R.Elbow			R.Wrist			
		X1	Y1	Z1	X2	Y2	Z2	X3	Y3	Z3	X4	Y4	Z4	X5	Y5	Z5	X6	Y6	Z6	X7	Y7	Z7	X8	Y8	Z8	X9	Y9	Z9	X10	Y10	Z10	X11	Y11	Z11	X12	Y12	Z12	X13	Y13	Z13	X14	Y14	Z14	X15	Y15	Z15	X16	Y16	Z16	X17	Y17	Z17	X18	Y18	Z18	X19	Y19	Z19	X20	Y20	Z20	X21	Y21	Z21	X22	Y22	Z22	X23	Y23	Z23	X24	Y24	Z24	X25	Y25	Z25	X26	Y26	Z26	X27	Y27	Z27	X28	Y28	Z28	X29	Y29	Z29	X30	Y30	Z30	X31	Y31	Z31	X32	Y32	Z32	X33	Y33	Z33	

89	20.021714285714	1116.526377338988	97.689082115155	598.951544497179	835.030858220132	1005.646644633443	468.558914707032	1073.359310157755	1430.121726267437	343.600654336620	1117.326866825539	1360.782497793509	527.633381987190	989.284344867176	1441.397594066094	666.348965398438	1006.741979871231	1492.823925435103	489.057455697234	1035.953415594200	939.098216442873	632.931405924379	1077.791686025999	959.748781583984	362.086959747067	1103.299081372000	749.715043731913	596.734029910035	1031.193549022360	630.616350592672	650.152715655139	1119.305807212422	587.038215720986	575.126780932995	1130.998631297609	498.399648393136	582.280130177142	1076.984219322721	729.729141308585	381.718025208823	971.041686906031	631.024701189076	303.519498832825	1027.741618599404	539.349529325050	372.347542201275	1014.170227860168	468.745856470914	374.519099614432	971.247543442876	406.325402860109	360.567645979531	860.941979796221	314.231619345711	302.926573750538	888.537256847455	190.465768282047	366.426491468951	1103.325063225703	407.419919446559	588.733060308856	1033.668807446323	303.628713269187	653.504540655615	1076.731548410710	208.060167131355	591.427144869533	944.219610449259	43.137722479340	569.533556400324	1030.575926071240	37.111817309297	639.962475804113	1237.628213597248	47.772503365769	621.088459422572	738.736249324365	47.940406660659	400.936212730100	811.804081333451	40.900426135556	320.431454100282	898.896662120204	97.460926123293	346.596337180510	1023.430855971743	39.594355739725	314.748792904430	1258.771139627521	1170.791855719496	193.021815623476	1516.642861498688	1176.509657458443	231.885026051783	808.878824694277	1140.365106989522	738.312204734261	775.533438903225	878.737720975987	736.420103813488	
90	20.045142857143	1111.898780657653	97.578201746400	598.985682757676	836.107776273082	1006.522223304293	475.344873035427	1073.694836427864	1430.591999076952	347.480245906495	1119.493858960247	1361.273161840344	531.157032832054	992.626201091528	1441.928969446402	671.033333248925	1008.607417052195	1493.488193517597	493.498598770866	1038.442229491596	939.870705750915	637.989910918371	1077.730000888007	959.971196753230	366.730190416776	1103.786933531409	749.168618312561	601.124616052294	1030.346993714830	630.568971237821	654.009200829873	1117.632391009334	586.474143495723	578.378035378928	1128.480610304324	497.763299933439	584.773468045381	1077.560656599174	730.152575464400	385.414440194552	971.670485447792	631.525976695867	307.236661416819	1029.776267775278	539.402370307644	374.801857549721	1016.475775830276	468.078131537893	376.142352194522	972.057715003004	406.380491854516	362.291114769496	859.846729958170	316.424114131643	304.765444198195	886.334200313134	191.558783678692	366.708450497849	1100.350438206972	407.048304254691	590.697648471110	1030.505947822817	303.175452854198	655.060629470182	1072.782074060696	207.822643719745	592.070062762698	939.624561707284	43.204444584168	569.482457027634	1025.931305458420	37.140496506338	639.948756821251	1233.029510141758	47.447370527512	621.162385504619	734.687553739414	50.832361846474	400.776554100955	807.675196921549	42.401024470759	320.401843798598	895.540229428266	97.964446226413	346.253416636098	1019.229021883023	39.103844088826	314.613283248543	1253.901779666735	1166.472765261488	196.501011041114	1512.396043643652	1166.554419272789	234.651148087083	813.914703920437	1140.111271841302	745.850770104999	781.038037536520	878.475578793534	745.560648874376	
91	20.068571428571	1107.210549225527	97.480578746764	599.027103873214	836.902438320190	1007.368233165524	482.099578874132	1073.700616423124	1430.996055273991	351.130207092407	1121.475181432290	1361.684439677224	534.387772566081	995.911529975938	1442.356041776509	675.536536441291	1010.323808520583	1494.101752289770	497.749672977094	1040.674376643090	940.542721897469	642.893103399558	1077.298466824893	960.185639436181	371.233915983120	1103.970916189914	748.576935081291	605.408099285538	1029.193874453380	630.496655638301	657.798585384081	1115.652412755238	585.904303797062	581.591458270043	1125.634451670770	497.152662633519	587.265230401538	1078.492936825023	730.739221825883	389.114981711606	973.149131199094	631.841502782692	310.945950819392	1033.027785814450	539.451838674264	377.266075375783	1020.104306088952	467.275366330255	377.725677774918	974.005499456755	406.285281960974	363.993265544399	859.733004671220	318.795938888255	306.574453827554	884.737707331783	192.832947536856	366.936416310560	1097.098265391648	406.703058467889	592.676345007335	1027.076482131098	302.721555670920	656.578426554508	1068.689915148334	207.617025116084	592.737726733701	934.959790625454	43.262098050398	569.420812071180	1021.224227741720	37.160710229164	639.930835915777	1228.357660488229	47.163169544171	621.227150363231	730.879912793708	54.426402071025	400.534747044443	803.700992700625	44.300339262956	320.303319546261	892.496062509561	98.593360538012	345.814820028415	1015.067653283822	38.651665693088	314.497804640334	1247.554432414065	1161.197049412526	200.012627911782	1506.583971655288	1154.196599576627	237.277387284641	819.661331778413	1139.263712109946	753.527181921995	787.882301177989	877.549282426012	755.113515210718	
92	20.092000000000	1102.482431516671	97.389346051246	599.071736429431	837.418639446651	1008.117885630450	488.837292908634	1073.333817762859	1431.277246935493	354.535949130786	1123.224891150071	1361.972289650704	537.310590836337	999.104395206921	1442.632210848507	679.836314945271	1011.843278874207	1494.613512614508	501.785639937973	1042.682848128158	941.090977103951	647.628835367270	1076.509539006248	960.342395700321	375.578850262707	1103.953281533354	747.954396953897	609.532790694987	1027.925180982568	630.377668236946	661.505799925987	1113.551320697660	585.329348005984	584.724056070061	1122.679999886599	496.540956994586	589.721393054885	1079.842940886816	731.473071032080	392.831124453762	975.579975735968	631.945195652434	314.646899013881	1037.593058935135	539.508800166474	379.765296592740	1025.158924094829	466.353429600567	379.296581071434	977.215404547988	406.041274918013	365.688265120679	860.741952016649	321.392513000818	308.354169941194	883.834631781747	194.348339068015	367.107717498417	1093.745842236729	406.352411720119	594.641258268351	1023.534523868265	302.261782892330	658.050504958720	1064.540200136875	207.416177038726	593.412719802827	930.240834767749	43.306901225542	569.360108791696	1016.473453969083	37.172073608433	639.916297854345	1223.635986438758	46.912078989219	621.278383877429	727.396688022313	58.911445933957	400.203197893931	799.930022537674	46.753530809924	320.131473566753	889.819285908767	99.403842583211	345.284528534331	1010.912675168276	38.224494950606	314.416081399528	1239.664866815710	1154.966451969494	203.635281264038	1498.945286838086	1139.186911180628	239.784872371279	826.265419688024	1137.712791040205	761.324838445787	796.326831819841	875.843329933901	765.082548852582	
